<?xml version="1.0" ?>
<svg xmlns="http://www.w3.org/2000/svg" width="130" height="130" viewBox="0 0 130 130">
  <path d="M125,87.44L99.77,72.88v7.26H6.87C5.84,80.14 5,80.98 5,82.01v10.86c0,1.04 0.84,1.87 1.87,1.87h92.9v7.26L125,87.44z" fill="#FFFFFF"/>
  <path d="M23.57,43.93H13.54v6.47h11.2v5.06H7.36V28.19h16.82v5.05H13.54v5.66h10.03V43.93z" fill="#FFFFFF"/>
  <path d="M28.96,55.45V28.19h7.2l5.66,9.99c1.62,2.87 3.24,6.27 4.45,9.34h0.12c-0.4,-3.6 -0.53,-7.28 -0.53,-11.36v-7.97h5.66v27.26h-6.47l-5.82,-10.51c-1.62,-2.91 -3.4,-6.43 -4.73,-9.63l-0.12,0.04c0.16,3.6 0.24,7.44 0.24,11.89v8.21H28.96z" fill="#FFFFFF"/>
  <path d="M62.12,33.37H54.8v-5.18h20.95v5.18h-7.44v22.08h-6.19V33.37z" fill="#FFFFFF"/>
  <path d="M95.25,43.93H85.22v6.47h11.2v5.06H79.03V28.19h16.82v5.05H85.22v5.66h10.03V43.93z" fill="#FFFFFF"/>
  <path d="M100.63,28.56c1.98,-0.32 4.93,-0.57 8.21,-0.57c4.04,0 6.88,0.61 8.82,2.14c1.62,1.29 2.51,3.2 2.51,5.7c0,3.48 -2.47,5.86 -4.81,6.71v0.12c1.9,0.77 2.95,2.59 3.64,5.1c0.85,3.07 1.7,6.63 2.22,7.68h-6.31c-0.44,-0.77 -1.09,-2.99 -1.9,-6.35c-0.73,-3.4 -1.9,-4.33 -4.41,-4.37h-1.86v10.72h-6.11V28.56zM106.73,40.29h2.43c3.07,0 4.89,-1.54 4.89,-3.92c0,-2.51 -1.7,-3.76 -4.53,-3.8c-1.5,0 -2.35,0.12 -2.79,0.2V40.29z" fill="#FFFFFF"/>
</svg>
