<?xml version="1.0" ?>
<svg xmlns="http://www.w3.org/2000/svg" width="130" height="130" viewBox="0 0 130 130">
  <path d="M71.39,125h12.63c0.31,0 0.56,-0.25 0.56,-0.56V89.84c0,-0.31 -0.25,-0.56 -0.56,-0.56H71.39c-0.31,0 -0.56,0.25 -0.56,0.56v34.59C70.83,124.75 71.08,125 71.39,125z" fill="#FFFFFF"/>
  <path d="M71.39,44.45h12.63c0.31,0 0.56,-0.25 0.56,-0.56V28.76h6.84L77.71,5L63.98,28.76h6.84v15.12C70.83,44.2 71.08,44.45 71.39,44.45z" fill="#FFFFFF"/>
  <path d="M78.21,74.62l-10.21,0l0,-20.8l-5.83,0l0,25.68l16.04,0z" fill="#FFFFFF"/>
  <path d="M91.58,62.89c-2.32,0 -4.04,0.72 -5.26,1.98h-0.11c0.65,-2.9 2.93,-5.52 8.08,-5.94c0.91,-0.08 1.6,-0.11 2.25,-0.08v-4.46c-0.57,-0.04 -1.26,-0.04 -2.32,0.04c-3.89,0.19 -7.09,1.41 -9.56,3.66c-2.67,2.48 -4.38,6.36 -4.38,11.01c0,5.91 3.24,10.82 9.83,10.82c5.37,0 9.14,-4.04 9.14,-8.95C99.24,65.82 95.74,62.89 91.58,62.89zM90.02,75.65c-2.63,0 -3.89,-2.36 -4,-4.99c0,-0.69 0.08,-1.14 0.23,-1.45c0.57,-1.26 1.87,-2.21 3.43,-2.21c2.48,0 3.7,1.98 3.7,4.27C93.38,73.78 92.08,75.65 90.02,75.65z" fill="#FFFFFF"/>
  <path d="M31.4,125h7.19c0.35,0 0.64,-0.29 0.64,-0.64V111.7c0,-0.35 -0.29,-0.64 -0.64,-0.64H31.4c-0.35,0 -0.64,0.29 -0.64,0.64v12.66C30.76,124.71 31.04,125 31.4,125z" fill="#FFFFFF"/>
  <path d="M31.4,89.65h7.19c0.35,0 0.64,-0.29 0.64,-0.64V76.35c0,-0.35 -0.29,-0.64 -0.64,-0.64H31.4c-0.35,0 -0.64,0.29 -0.64,0.64v12.66C30.76,89.36 31.04,89.65 31.4,89.65z" fill="#FFFFFF"/>
  <path d="M31.4,54.29h7.19c0.35,0 0.64,-0.29 0.64,-0.64V40.99c0,-0.35 -0.29,-0.64 -0.64,-0.64H31.4c-0.35,0 -0.64,0.29 -0.64,0.64v12.66C30.76,54.01 31.04,54.29 31.4,54.29z" fill="#FFFFFF"/>
  <path d="M31.4,18.94h7.19c0.35,0 0.64,-0.29 0.64,-0.64V5.64c0,-0.35 -0.29,-0.64 -0.64,-0.64H31.4c-0.35,0 -0.64,0.29 -0.64,0.64V18.3C30.76,18.65 31.04,18.94 31.4,18.94z" fill="#FFFFFF"/>
</svg>
