<?xml version="1.0" ?>
<svg xmlns="http://www.w3.org/2000/svg" width="129.97" height="130.06" viewBox="0 0 129.97 130.06">
  <path d="M100.16,75.84l-3.12,4.02l-4.3,-3.33l0.36,-0.73c0.91,-1.85 1.64,-3.83 2.18,-5.9v-0.11l0.06,-0.12c0.26,-1.03 0.47,-2.09 0.62,-3.16l0.03,-0.17h0L96,66.27c0.13,-0.94 0.21,-1.79 0.25,-2.6c0.03,-0.57 0.05,-1.13 0.05,-1.71c0,-17.33 -14.1,-31.44 -31.44,-31.44s-31.44,14.1 -31.44,31.44c0,0.53 0.01,1.02 0.04,1.52l0.02,0.29c0.03,0.45 0.06,0.85 0.09,1.24l0.06,0.56c0.04,0.3 0.07,0.61 0.12,0.91l0.01,0.07c0.03,0.18 0.06,0.36 0.08,0.53c0.05,0.29 0.1,0.58 0.16,0.87c0.04,0.19 0.07,0.38 0.11,0.57l0.01,0.04c0.05,0.25 0.11,0.51 0.17,0.76l0.17,0.68c0.08,0.3 0.17,0.6 0.26,0.9l0.15,0.5c0.13,0.41 0.27,0.82 0.41,1.22l0.04,0.13c0.18,0.5 0.36,0.93 0.54,1.36l0.21,0.46c0.1,0.24 0.21,0.47 0.31,0.7l0.11,0.24l0.22,0.44c0.16,0.32 0.33,0.64 0.5,0.96l0.19,0.34c0.13,0.24 0.27,0.48 0.41,0.72c0.11,0.18 0.21,0.35 0.32,0.53c0.14,0.23 0.29,0.46 0.44,0.69l0.34,0.51c0.22,0.32 0.45,0.63 0.68,0.94l0.15,0.21c0.23,0.31 0.47,0.61 0.71,0.91c0.38,0.46 0.72,0.87 1.08,1.27l0.36,0.39c0.11,0.12 0.22,0.23 0.33,0.35l0.4,0.41l0.32,0.31c0.3,0.3 0.61,0.58 0.93,0.87l0.13,0.12c0.2,0.18 0.41,0.36 0.61,0.53l0,0c0.16,0.13 0.32,0.27 0.48,0.4c0.21,0.17 0.42,0.34 0.64,0.5l0.49,0.37c0.29,0.21 0.59,0.42 0.89,0.63l0.28,0.19c0.31,0.21 0.63,0.41 0.95,0.61l0.05,0.03c0.5,0.31 0.96,0.58 1.43,0.83l0.51,0.27c0.25,0.13 0.51,0.26 0.76,0.39l0.54,0.25c0.25,0.12 0.51,0.24 0.77,0.35l0.41,0.17c0.37,0.15 0.66,0.27 0.95,0.38l0.28,0.1c0.37,0.14 0.73,0.26 1.1,0.38l0.15,0.05c0.14,0.05 0.29,0.09 0.43,0.14c0.31,0.1 0.63,0.18 0.94,0.27l0.69,0.18c0.31,0.08 0.63,0.15 0.95,0.22l1.07,0.23v24.93c0,0.12 0.1,0.21 0.21,0.21h10.57c0.12,0 0.21,-0.1 0.21,-0.21V82.4h-5.49c-5.81,0 -11.36,-2.49 -15.24,-6.82c-3.87,-4.33 -5.72,-10.14 -5.08,-15.94c1.04,-9.37 8.6,-16.93 17.97,-17.97c5.8,-0.65 11.62,1.2 15.94,5.08c4.34,3.88 6.82,9.43 6.82,15.23c0,0.6 -0.03,1.23 -0.1,1.94l-0.06,0.49c-0.06,0.49 -0.13,0.98 -0.23,1.47l-0.09,0.43c-0.12,0.54 -0.25,1.06 -0.41,1.58l-0.06,0.21c-0.14,0.45 -0.29,0.88 -0.46,1.29l-0.07,0.17c-0.16,0.39 -0.33,0.78 -0.51,1.16l-0.07,0.15c-0.22,0.45 -0.41,0.82 -0.62,1.18l-0.07,0.12c-0.26,0.44 -0.49,0.82 -0.74,1.18l-0.15,0.21c-0.2,0.29 -0.4,0.59 -0.62,0.88l-3.35,4.34l12.6,9.77l-3.12,4.02l20.97,2.87L100.16,75.84z" fill="#FFFFFF"/>
  <path d="M71.28,53.38c-0.61,-0.04 -1.26,0 -2.12,0.07c-4.86,0.4 -7.02,2.88 -7.63,5.62h0.11c1.15,-1.19 2.77,-1.87 4.97,-1.87c3.92,0 7.23,2.77 7.23,7.63c0,4.64 -3.56,8.46 -8.64,8.46c-6.23,0 -9.29,-4.64 -9.29,-10.22c0,-4.39 1.62,-8.06 4.14,-10.4c2.34,-2.12 5.36,-3.28 9.04,-3.46c1.01,-0.07 1.66,-0.07 2.2,-0.04V53.38zM68.29,65.11c0,-2.16 -1.15,-4.03 -3.49,-4.03c-1.48,0 -2.7,0.9 -3.24,2.09c-0.14,0.29 -0.22,0.72 -0.22,1.37c0.11,2.48 1.3,4.71 3.78,4.71C67.07,69.25 68.29,67.49 68.29,65.11z" fill="#FFFFFF"/>
  <path d="M76.36,85.34l3.78,2.93c-1.22,0.71 -2.48,1.34 -3.78,1.87V85.34z" fill="#FFFFFF" fill-opacity="0.5"/>
</svg>
