<?xml version="1.0" ?>
<svg xmlns="http://www.w3.org/2000/svg" width="130" height="130" viewBox="0 0 130 130">
  <path d="M87.37,5l13.63,23.61h-6.8v94.69c0,0.94 -0.76,1.7 -1.7,1.7H82.24c-0.94,0 -1.7,-0.76 -1.7,-1.7V28.61h-6.8L87.37,5z" fill="#FFFFFF"/>
  <path d="M37.41,38v54.07c0,0.94 -0.76,1.7 -1.7,1.7h-5.01c-0.94,0 -1.7,-0.76 -1.7,-1.7V38c0,-0.94 0.76,-1.7 1.7,-1.7h5.01C36.65,36.3 37.41,37.06 37.41,38z" fill="#FFFFFF"/>
  <path d="M60.37,93.77h-5.01c-0.94,0 -1.7,-0.76 -1.7,-1.7V38c0,-0.94 0.76,-1.7 1.7,-1.7h5.01c0.94,0 1.7,0.76 1.7,1.7v54.07C62.07,93 61.31,93.77 60.37,93.77z" fill="#FFFFFF"/>
</svg>
