<?xml version="1.0" ?>
<svg xmlns="http://www.w3.org/2000/svg" width="130" height="130" viewBox="0 0 130 130">
  <path d="M76.94,52.18v7c0,0.39 0.32,0.71 0.71,0.71h15.38c0.39,0 0.71,-0.32 0.71,-0.71v-7c0,-0.39 -0.32,-0.71 -0.71,-0.71H77.65C77.26,51.48 76.94,51.79 76.94,52.18z" fill="#FFFFFF"/>
  <path d="M77.65,91.27h15.38c0.39,0 0.71,-0.32 0.71,-0.71v-7c0,-0.39 -0.32,-0.71 -0.71,-0.71H77.65c-0.39,0 -0.71,0.32 -0.71,0.71v7C76.94,90.95 77.26,91.27 77.65,91.27z" fill="#FFFFFF"/>
  <path d="M52.76,51.48H36.97c-0.39,0 -0.71,0.32 -0.71,0.71v7c0,0.39 0.32,0.71 0.71,0.71h15.79c0.39,0 0.71,-0.32 0.71,-0.71v-7C53.47,51.79 53.15,51.48 52.76,51.48z" fill="#FFFFFF"/>
  <path d="M52.76,82.85H36.97c-0.39,0 -0.71,0.32 -0.71,0.71v7c0,0.39 0.32,0.71 0.71,0.71h15.79c0.39,0 0.71,-0.32 0.71,-0.71v-7C53.47,83.17 53.15,82.85 52.76,82.85z" fill="#FFFFFF"/>
  <path d="M72.04,28.73h6.8L65.2,5.12L51.57,28.73h6.8v22.75h-0.02v8.41h0.02v22.96h-0.02v8.41h0.02v32.83c0,0.56 0.45,1.02 1.02,1.02h11.64c0.56,0 1.02,-0.45 1.02,-1.02V91.27h0.02v-8.41h-0.02V59.89h0.02v-8.41h-0.02V28.73z" fill="#FFFFFF"/>
</svg>
