<?xml version="1.0" ?>
<svg xmlns="http://www.w3.org/2000/svg" width="129.97" height="130.06" viewBox="0 0 129.97 130.06">
  <path d="M62.43,54.31h-0.07l-4.59,2.18l-0.93,-4.22l6.36,-2.96h4.66v24.05h-5.44V54.31z" fill="#FFFFFF"/>
  <path d="M60.74,81.99l-0.1,-0.02c-0.59,-0.12 -1.2,-0.28 -1.8,-0.46l-0.13,-0.04c-1.39,-0.44 -2.74,-1.03 -4.01,-1.75l-0.12,-0.07c-0.38,-0.22 -0.75,-0.45 -1.11,-0.69l-0.12,-0.08c-0.75,-0.51 -1.49,-1.09 -2.19,-1.72l-0.22,-0.2c-0.3,-0.28 -0.55,-0.52 -0.79,-0.77l-0.27,-0.28c-0.31,-0.33 -0.62,-0.68 -0.91,-1.03l-3.46,-4.25L32.88,80.85l-3.19,-3.96l-7.6,19.75l20.91,-3.29l-3.2,-3.96l4.49,-3.63l0.63,0.52c3.08,2.53 6.59,4.43 10.42,5.64c0.15,0.05 0.31,0.09 0.46,0.14l0.03,0.01c0,0 0.01,0 0.01,0l0.34,0.1c0.23,0.07 0.43,0.13 0.63,0.18h0.28l0.1,0.1c0.27,0.07 0.53,0.13 0.8,0.18l0.27,0.07c0.1,0.02 0.19,0.05 0.29,0.07l0.8,0.16v24.93c0,0.12 0.1,0.21 0.21,0.21h10.57c0.12,0 0.21,-0.1 0.21,-0.21V82.41h-5.27c-0.55,0 -1.63,-0.05 -2.18,-0.1l-0.19,-0.02c-0.59,-0.06 -1.21,-0.16 -1.83,-0.28L60.74,81.99z" fill="#FFFFFF"/>
  <path d="M64.85,31.54c-16.78,0 -30.44,13.65 -30.44,30.44c0,3.02 0.44,5.99 1.32,8.86l7.84,-6.34c-0.11,-0.87 -0.16,-1.7 -0.16,-2.52c0,-11.82 9.62,-21.44 21.44,-21.44s21.44,9.62 21.44,21.44c0,7.32 -3.78,14.14 -9.94,18.07v10.1c11.27,-4.63 18.94,-15.85 18.94,-28.17C95.29,45.2 81.63,31.54 64.85,31.54z" fill="#FFFFFF" fill-opacity="0.5"/>
  <path d="M76.35,90.15v-10.1c6.16,-3.93 9.94,-10.75 9.94,-18.07c0,-11.82 -9.62,-21.44 -21.44,-21.44s-21.44,9.62 -21.44,21.44c0,0.82 0.05,1.65 0.16,2.52l-7.84,6.34c-0.88,-2.87 -1.32,-5.83 -1.32,-8.86c0,-16.78 13.65,-30.44 30.44,-30.44S95.29,45.2 95.29,61.98C95.29,74.3 87.62,85.52 76.35,90.15z" fill="#FFFFFF" fill-opacity="0.5"/>
</svg>
