<?xml version="1.0" ?>
<svg xmlns="http://www.w3.org/2000/svg" width="130" height="130" viewBox="0 0 130 130">
  <path d="M88.49,45.53V28.51h6.77L81.69,5L68.11,28.51h6.77v18.26c0,2.2 -0.86,4.32 -2.39,5.9L37.13,89.15c-1.53,1.58 -2.39,3.69 -2.39,5.89v28.27c0,0.94 0.76,1.69 1.69,1.69h10.23c0.94,0 1.69,-0.76 1.69,-1.69V99.45c0,-1.49 0.58,-2.92 1.62,-3.99l36.19,-37.33c1.5,-1.55 2.34,-3.62 2.34,-5.77V45.53z" fill="#FFFFFF"/>
  <path d="M74.88,89.23v34.08c0,0.94 0.76,1.69 1.69,1.69H86.8c0.94,0 1.69,-0.76 1.69,-1.69V75.18L74.88,89.23z" fill="#FFFFFF"/>
</svg>
