<?xml version="1.0" ?>
<svg xmlns="http://www.w3.org/2000/svg" width="130" height="130" viewBox="0 0 130 130">
  <path d="M56.4,25.76l-27.28,-7.33l7.29,27.29l4.98,-4.98l43.58,43.65c1.12,1.12 1.74,2.63 1.74,4.21v34.63c0,0.97 0.79,1.76 1.76,1.76h10.64c0.97,0 1.76,-0.79 1.76,-1.76V83.92c0,-2.33 -0.93,-4.57 -2.58,-6.22L51.42,30.74L56.4,25.76z" fill="#FFFFFF"/>
  <path d="M100.88,60.33V6.76c0,-0.97 -0.79,-1.76 -1.76,-1.76H88.48c-0.97,0 -1.76,0.79 -1.76,1.76v39.4L100.88,60.33z" fill="#FFFFFF"/>
</svg>
