<?xml version="1.0" ?>
<svg xmlns="http://www.w3.org/2000/svg" width="129.97" height="130.06" viewBox="0 0 129.97 130.06">
  <path d="M84.09,55.07l0.05,0.13c0.08,0.23 0.16,0.45 0.23,0.68l0.03,0.1c0.14,0.46 0.27,0.92 0.38,1.39l1.24,5.41l15.92,-3.79l1.18,4.94l15.38,-14.54l-20.28,-6.05l1.18,4.95l-5.59,1.33l-0.34,-0.75c-3.94,-8.69 -11.52,-15.01 -20.8,-17.35l-0.12,-0.03c-1.19,-0.29 -2.38,-0.52 -3.54,-0.67c-0.48,-0.06 -0.97,-0.12 -1.46,-0.16c-0.21,-0.02 -0.42,-0.04 -0.63,-0.05c-0.8,-0.05 -1.46,-0.08 -2.06,-0.08c-8.82,0 -17.3,3.76 -23.26,10.31c-5.27,5.8 -8.18,13.3 -8.18,21.12c0,0.51 0.01,1.02 0.04,1.52l0.03,0.5c0.02,0.33 0.04,0.65 0.07,0.97l0.07,0.62c0.04,0.31 0.07,0.62 0.12,0.92c0.02,0.16 0.05,0.32 0.07,0.48l0.02,0.12c0.05,0.29 0.1,0.58 0.16,0.88l0.02,0.1c0.03,0.16 0.06,0.3 0.09,0.43l0.01,0.06c0.08,0.36 0.16,0.71 0.25,1.07l0.09,0.37c0.08,0.32 0.18,0.63 0.27,0.94c0.2,0.65 0.38,1.23 0.59,1.79c0.18,0.5 0.36,0.95 0.55,1.39l0.23,0.54c0.11,0.24 0.26,0.56 0.41,0.89l0.2,0.4c0.15,0.3 0.31,0.6 0.47,0.9l0.24,0.44c0.12,0.21 0.26,0.46 0.41,0.7c0.1,0.17 0.2,0.34 0.3,0.5c0.15,0.25 0.31,0.49 0.47,0.73l0.31,0.47c0.14,0.21 0.29,0.42 0.44,0.62h0l0.3,0.41c0.29,0.39 0.59,0.78 0.9,1.16l0.07,0.09c0.3,0.36 0.61,0.72 0.93,1.07l0.32,0.34c0.22,0.24 0.44,0.47 0.66,0.69l0.4,0.39c0.21,0.2 0.42,0.4 0.63,0.6c0.13,0.12 0.27,0.24 0.4,0.36c0.23,0.2 0.45,0.4 0.68,0.59c0.15,0.13 0.3,0.25 0.45,0.37c0.22,0.18 0.45,0.36 0.68,0.53l0.46,0.35c0.28,0.21 0.56,0.4 0.84,0.6l0.32,0.22c0.36,0.24 0.71,0.47 1.08,0.69l0.09,0.06c0.44,0.27 0.86,0.51 1.28,0.74l0.7,0.37c0.6,0.31 1.22,0.61 1.83,0.87l0.07,0.03c0.16,0.07 0.32,0.13 0.48,0.2l0.14,0.06c0.24,0.1 0.49,0.2 0.73,0.29c0.14,0.05 0.28,0.11 0.42,0.16l0.13,0.05c0.74,0.27 1.53,0.51 2.33,0.73l0.31,0.08c0.44,0.12 0.9,0.23 1.37,0.33l0.15,0.03l0.88,0.2l0.01,0.8v24.12c0,0.12 0.1,0.21 0.21,0.21h10.57c0.12,0 0.21,-0.1 0.21,-0.21V82.41h-5.02c-11.11,0 -20.49,-8.81 -20.9,-19.65c-0.21,-5.6 1.81,-10.91 5.7,-14.95c3.89,-4.04 9.12,-6.27 14.72,-6.27l0.1,0c0.53,0.02 1.17,0.03 1.86,0.09c0.11,0.01 0.21,0.02 0.31,0.04l0.18,0.02c0.51,0.06 1.01,0.13 1.5,0.23l0.39,0.08c0.51,0.11 1.02,0.24 1.51,0.38l0.16,0.05l0.11,0.04c1.55,0.48 3.05,1.15 4.44,1.99c1.02,0.62 1.97,1.32 2.88,2.1l0.16,0.14c0.26,0.23 0.52,0.47 0.77,0.72l0.13,0.14c0.56,0.57 1.02,1.09 1.45,1.62l0.11,0.13c0.2,0.25 0.38,0.51 0.57,0.77c0.1,0.14 0.2,0.28 0.29,0.42c0.17,0.25 0.34,0.51 0.5,0.77c0.06,0.1 0.12,0.21 0.18,0.31l0.07,0.13c0.26,0.45 0.51,0.92 0.74,1.4c0.1,0.22 0.19,0.38 0.26,0.56c0.12,0.26 0.22,0.53 0.33,0.8C83.94,54.66 84.02,54.87 84.09,55.07z" fill="#FFFFFF"/>
  <path d="M72.99,54.6h-9.07l-0.5,3.6c0.5,-0.07 0.94,-0.07 1.51,-0.07c2.23,0 4.5,0.5 6.16,1.69c1.76,1.19 2.84,3.13 2.84,5.87c0,4.36 -3.74,8.21 -10.04,8.21c-2.84,0 -5.22,-0.65 -6.52,-1.33l0.97,-4.1c1.04,0.5 3.17,1.15 5.29,1.15c2.27,0 4.68,-1.08 4.68,-3.56c0,-2.41 -1.91,-3.89 -6.59,-3.89c-1.3,0 -2.2,0.07 -3.17,0.22L60.1,50.1h12.89V54.6z" fill="#FFFFFF"/>
  <path d="M76.36,80.04v10.11c9.75,-4 16.84,-12.92 18.53,-23.31l-9.86,2.35C83.43,73.68 80.4,77.47 76.36,80.04z" fill="#FFFFFF" fill-opacity="0.5"/>
</svg>
